<svg xmlns="http://www.w3.org/2000/svg" xmlns:xlink="http://www.w3.org/1999/xlink" width="2000" zoomAndPan="magnify" viewBox="0 0 1500 1499.999933" height="2000" preserveAspectRatio="xMidYMid meet" version="1.0"><defs><g/><clipPath id="0d7c924782"><path d="M 0.398438 0 L 1123.359375 0 L 1123.359375 1500 L 0.398438 1500 Z M 0.398438 0 " clip-rule="nonzero"/></clipPath><clipPath id="e40b07557b"><rect x="0" width="1124" y="0" height="1500"/></clipPath><clipPath id="2223ba9c08"><rect x="0" width="1124" y="0" height="1500"/></clipPath></defs><g transform="matrix(1, 0, 0, 1, 188, 0.000000000000112861)"><g clip-path="url(#2223ba9c08)"><g clip-path="url(#0d7c924782)"><g transform="matrix(1, 0, 0, 1, 0, 0.000000000000112861)"><g clip-path="url(#e40b07557b)"><g fill="#cf5532" fill-opacity="1"><g transform="translate(2.724159, 1457.598998)"><g><path d="M 508.8125 38.640625 C 430.09375 38.640625 349.941406 28.976562 268.359375 9.65625 C 186.773438 -9.664062 118.789062 -35.066406 64.40625 -66.546875 L 75.140625 -358.53125 L 96.609375 -358.53125 L 163.15625 -218.984375 C 183.195312 -178.910156 204.664062 -143.484375 227.5625 -112.703125 C 250.46875 -81.929688 281.957031 -57.960938 322.03125 -40.796875 C 350.65625 -26.484375 378.207031 -16.820312 404.6875 -11.8125 C 431.164062 -6.800781 460.863281 -4.296875 493.78125 -4.296875 C 581.082031 -4.296875 650.132812 -27.910156 700.9375 -75.140625 C 751.75 -122.367188 777.15625 -183.195312 777.15625 -257.625 C 777.15625 -327.75 759.976562 -382.488281 725.625 -421.84375 C 691.28125 -461.207031 636.179688 -499.5 560.328125 -536.71875 L 472.3125 -575.359375 C 349.21875 -629.742188 252.960938 -692.359375 183.546875 -763.203125 C 114.140625 -834.054688 79.4375 -928.160156 79.4375 -1045.515625 C 79.4375 -1129.960938 101.257812 -1202.957031 144.90625 -1264.5 C 188.5625 -1326.039062 249.390625 -1373.269531 327.390625 -1406.1875 C 405.398438 -1439.113281 496.644531 -1455.578125 601.125 -1455.578125 C 676.976562 -1455.578125 748.894531 -1445.554688 816.875 -1425.515625 C 884.863281 -1405.472656 943.90625 -1378.28125 994 -1343.9375 L 981.109375 -1086.3125 L 959.640625 -1086.3125 L 871.625 -1247.328125 C 847.289062 -1297.421875 822.957031 -1332.84375 798.625 -1353.59375 C 774.300781 -1374.34375 746.394531 -1389.015625 714.90625 -1397.609375 C 696.300781 -1403.328125 679.125 -1407.257812 663.375 -1409.40625 C 647.632812 -1411.5625 627.597656 -1412.640625 603.265625 -1412.640625 C 530.273438 -1412.640625 468.734375 -1391.523438 418.640625 -1349.296875 C 368.546875 -1307.078125 343.5 -1250.1875 343.5 -1178.625 C 343.5 -1105.632812 362.816406 -1047.3125 401.453125 -1003.65625 C 440.097656 -960 496.632812 -921 571.0625 -886.65625 L 669.8125 -843.71875 C 807.21875 -783.601562 905.972656 -719.550781 966.078125 -651.5625 C 1026.191406 -583.582031 1056.25 -495.921875 1056.25 -388.578125 C 1056.25 -262.628906 1008.660156 -159.9375 913.484375 -80.5 C 818.304688 -1.070312 683.414062 38.640625 508.8125 38.640625 Z M 508.8125 38.640625 "/></g></g></g></g></g></g><path fill="#cf5532" d="M 647.515625 301.835938 C 649.609375 300.179688 679.996094 298.070312 686.328125 296.949219 C 716.175781 291.59375 725.25 284.679688 736.011719 256.4375 C 744.421875 234.378906 752.488281 203.570312 754.015625 180.066406 C 754.515625 172.226562 752.375 152.535156 754.257812 147 C 755.183594 144.273438 761.253906 141.824219 763.105469 144.632812 C 764.839844 147.277344 763.394531 165.246094 763.753906 170.34375 C 767.046875 217.660156 773.214844 262.636719 822.691406 280.703125 C 829.054688 283.023438 840.222656 284.613281 845.238281 287.292969 C 849.847656 289.761719 848.792969 294.988281 846.226562 298.65625 C 843.046875 303.199219 826.375 302.082031 820.109375 303.054688 C 800.921875 306.023438 787.855469 310.941406 780.714844 330.273438 C 771.65625 354.800781 776.835938 398.203125 776.300781 425.78125 C 775.992188 441.496094 776.574219 465.226562 774.871094 479.867188 C 773.507812 491.652344 766.203125 487.886719 765.101562 478.488281 C 763.589844 465.597656 764.433594 449.984375 763.738281 436.835938 C 762.988281 422.925781 760.832031 406.191406 760.894531 392.457031 C 760.945312 380.234375 764.417969 363.808594 763.835938 352.21875 C 762.8125 332.125 737.148438 322.742188 720.527344 319.074219 C 698.664062 314.238281 674.707031 314.59375 652.335938 313.734375 C 649.15625 312.777344 644.449219 304.289062 647.550781 301.835938 Z M 809.511719 290.425781 C 789.527344 283.722656 774.921875 266.855469 766.707031 247.882812 L 759.597656 229.363281 C 753.835938 250.414062 745.410156 270.121094 732.976562 288.089844 C 728.984375 293.867188 722.230469 298.121094 720.738281 305.652344 C 738.253906 309.644531 755.570312 316.511719 767.210938 330.617188 C 773.785156 317.222656 777.0625 305.230469 791.429688 297.972656 C 797.417969 294.953125 804.996094 294.679688 809.511719 290.410156 Z M 809.511719 290.425781 " fill-opacity="1" fill-rule="nonzero"/><path fill="#cf5532" d="M 541.410156 120.074219 C 545.628906 119.488281 548.730469 119.457031 552.933594 120.316406 C 583.808594 126.746094 568.484375 173.230469 541.050781 172.550781 C 511.023438 171.804688 506.445312 124.894531 541.410156 120.074219 Z M 541.359375 131.144531 C 525.355469 134.082031 523.019531 153.414062 536.539062 158.898438 C 558.957031 168.003906 575.789062 124.8125 541.359375 131.144531 Z M 541.359375 131.144531 " fill-opacity="1" fill-rule="nonzero"/><path fill="#cf5532" d="M 796.589844 614.835938 C 773.996094 632.609375 747.261719 614.785156 752.941406 586.996094 C 757.925781 562.617188 808.761719 569.011719 801.960938 601.328125 C 800.890625 606.378906 796.816406 609.867188 796.589844 614.816406 Z M 762.746094 586.394531 C 751.335938 600.40625 781.414062 625.109375 792.546875 601.65625 C 801.945312 581.851562 770.828125 576.496094 762.746094 586.394531 Z M 762.746094 586.394531 " fill-opacity="1" fill-rule="nonzero"/><path fill="#cf5532" d="M 578.871094 492.675781 C 578.402344 493.195312 576.308594 494.085938 575.707031 494.003906 C 572.234375 493.5 535.746094 451.378906 533.539062 443.71875 C 538.148438 440.40625 539.378906 440.78125 537.578125 434.742188 C 539.980469 434.109375 540.355469 435.734375 541.75 436.804688 C 556.082031 447.824219 568.011719 466.636719 581.273438 479.167969 C 582.945312 481.976562 580.753906 490.644531 578.871094 492.675781 Z M 578.871094 492.675781 " fill-opacity="1" fill-rule="nonzero"/><path fill="#cf5532" d="M 501.933594 400.980469 C 497.777344 397.410156 491.300781 386.875 486.96875 381.988281 C 481.402344 375.707031 463.074219 358.648438 460.964844 352.464844 C 460.332031 350.613281 458.953125 349.625 461.242188 347.96875 C 463.171875 346.765625 466.417969 347.105469 468.625 347.59375 C 474.679688 348.957031 493.152344 368.078125 498.085938 373.664062 C 500.359375 376.226562 509.691406 386.988281 510.519531 389 C 512.761719 394.519531 508.230469 406.371094 501.964844 400.980469 Z M 501.933594 400.980469 " fill-opacity="1" fill-rule="nonzero"/><path fill="#cf5532" d="M 597.070312 347.480469 C 598.089844 349.085938 596.761719 354.445312 595.949219 356.425781 C 594.421875 360.207031 563.648438 386.90625 558.273438 390.882812 C 549.867188 397.101562 542.433594 398.773438 546.976562 385.121094 C 548.988281 379.066406 579.796875 351.683594 586.257812 348.097656 C 590.007812 346.019531 593.1875 345.386719 597.070312 347.464844 Z M 597.070312 347.480469 " fill-opacity="1" fill-rule="nonzero"/><path fill="#cf5532" d="M 932.824219 79.640625 C 933.457031 85.890625 932.15625 91.390625 926.054688 94.035156 C 920.859375 96.277344 890.425781 103.988281 884.941406 104.375 C 879.097656 104.78125 873.253906 100.351562 876.742188 94.71875 C 879.308594 90.578125 917.988281 79.039062 924.367188 78.375 C 927.53125 78.03125 929.949219 78.179688 932.808594 79.65625 Z M 932.824219 79.640625 " fill-opacity="1" fill-rule="nonzero"/><path fill="#cf5532" d="M 501.332031 430.75 C 507.09375 439.871094 479.421875 457.871094 472.8125 462.238281 C 467.605469 465.664062 457.6875 474.074219 453.628906 465.226562 C 451.859375 461.363281 454.097656 458.570312 456.566406 455.699219 C 460.136719 451.542969 488.394531 430.261719 492.84375 429.433594 C 494.792969 429.078125 500.523438 429.484375 501.332031 430.75 Z M 501.332031 430.75 " fill-opacity="1" fill-rule="nonzero"/><path fill="#cf5532" d="M 888.589844 25.34375 C 889.566406 31.414062 886.757812 36.121094 884.679688 41.542969 C 880.507812 52.402344 869.730469 78.421875 863.902344 87.367188 C 863.042969 88.679688 862.457031 90.984375 860.265625 90.5 C 857.507812 88.40625 855.382812 86.601562 855.152344 82.933594 C 854.796875 77.058594 870.605469 44.839844 874.679688 38.476562 C 875.945312 36.511719 885.765625 22.164062 888.589844 25.34375 Z M 888.589844 25.34375 " fill-opacity="1" fill-rule="nonzero"/><path fill="#cf5532" d="M 406.65625 1100.257812 C 408.75 1098.605469 439.132812 1096.492188 445.464844 1095.375 C 475.316406 1090.015625 484.390625 1083.101562 495.152344 1054.859375 C 503.558594 1032.800781 511.625 1001.992188 513.152344 978.488281 C 513.65625 970.648438 511.511719 950.960938 513.394531 945.425781 C 514.320312 942.695312 520.390625 940.246094 522.242188 943.054688 C 523.976562 945.699219 522.535156 963.667969 522.890625 968.765625 C 526.1875 1016.082031 532.355469 1061.058594 581.828125 1079.125 C 588.191406 1081.445312 599.359375 1083.039062 604.375 1085.714844 C 608.984375 1088.183594 607.929688 1093.410156 605.363281 1097.078125 C 602.183594 1101.621094 585.511719 1100.503906 579.246094 1101.476562 C 560.0625 1104.445312 546.996094 1109.367188 539.851562 1128.699219 C 530.796875 1153.222656 535.972656 1196.628906 535.4375 1224.207031 C 535.128906 1239.917969 535.714844 1263.648438 534.007812 1278.289062 C 532.644531 1290.074219 525.339844 1286.308594 524.238281 1276.910156 C 522.726562 1264.023438 523.574219 1248.40625 522.875 1235.257812 C 522.128906 1221.347656 519.96875 1204.613281 520.035156 1190.882812 C 520.082031 1178.660156 523.554688 1162.230469 522.972656 1150.644531 C 521.949219 1130.546875 496.285156 1121.164062 479.664062 1117.496094 C 457.800781 1112.660156 433.84375 1113.015625 411.476562 1112.15625 C 408.292969 1111.199219 403.585938 1102.710938 406.6875 1100.257812 Z M 568.648438 1088.847656 C 548.667969 1082.144531 534.058594 1065.28125 525.84375 1046.304688 L 518.734375 1027.785156 C 512.972656 1048.835938 504.546875 1068.542969 492.117188 1086.511719 C 488.121094 1092.289062 481.371094 1096.542969 479.875 1104.074219 C 497.390625 1108.066406 514.710938 1114.933594 526.347656 1129.039062 C 532.921875 1115.648438 536.199219 1103.652344 550.566406 1096.394531 C 556.554688 1093.375 564.136719 1093.101562 568.648438 1088.832031 Z M 568.648438 1088.847656 " fill-opacity="1" fill-rule="nonzero"/><path fill="#cf5532" d="M 300.546875 918.496094 C 304.769531 917.910156 307.867188 917.878906 312.070312 918.738281 C 342.945312 925.167969 327.621094 971.65625 300.191406 970.972656 C 270.160156 970.226562 265.585938 923.316406 300.546875 918.496094 Z M 300.5 929.566406 C 284.496094 932.503906 282.15625 951.835938 295.679688 957.320312 C 318.09375 966.429688 334.925781 923.234375 300.5 929.566406 Z M 300.5 929.566406 " fill-opacity="1" fill-rule="nonzero"/><path fill="#cf5532" d="M 555.726562 1413.257812 C 533.132812 1431.03125 506.398438 1413.207031 512.082031 1385.417969 C 517.0625 1361.039062 567.902344 1367.433594 561.101562 1399.753906 C 560.027344 1404.800781 555.953125 1408.289062 555.726562 1413.242188 Z M 521.882812 1384.820312 C 510.472656 1398.828125 540.550781 1423.53125 551.6875 1400.078125 C 561.085938 1380.273438 529.96875 1374.917969 521.882812 1384.820312 Z M 521.882812 1384.820312 " fill-opacity="1" fill-rule="nonzero"/><path fill="#cf5532" d="M 338.011719 1291.097656 C 337.539062 1291.617188 335.445312 1292.507812 334.84375 1292.425781 C 331.371094 1291.925781 294.882812 1249.804688 292.675781 1242.140625 C 297.285156 1238.832031 298.519531 1239.203125 296.714844 1233.164062 C 299.117188 1232.53125 299.492188 1234.15625 300.886719 1235.226562 C 315.222656 1246.25 327.152344 1265.0625 340.414062 1277.589844 C 342.085938 1280.398438 339.894531 1289.066406 338.011719 1291.097656 Z M 338.011719 1291.097656 " fill-opacity="1" fill-rule="nonzero"/><path fill="#cf5532" d="M 261.070312 1199.402344 C 256.917969 1195.832031 250.441406 1185.296875 246.105469 1180.410156 C 240.539062 1174.128906 222.210938 1157.070312 220.101562 1150.886719 C 219.46875 1149.035156 218.089844 1148.046875 220.378906 1146.390625 C 222.308594 1145.1875 225.554688 1145.53125 227.765625 1146.015625 C 233.820312 1147.378906 252.289062 1166.5 257.226562 1172.085938 C 259.496094 1174.648438 268.832031 1185.410156 269.660156 1187.425781 C 271.898438 1192.941406 267.371094 1204.792969 261.105469 1199.402344 Z M 261.070312 1199.402344 " fill-opacity="1" fill-rule="nonzero"/><path fill="#cf5532" d="M 356.207031 1145.902344 C 357.230469 1147.511719 355.898438 1152.867188 355.085938 1154.847656 C 353.558594 1158.628906 322.785156 1185.332031 317.414062 1189.308594 C 309.003906 1195.523438 301.570312 1197.195312 306.113281 1183.542969 C 308.128906 1177.488281 338.9375 1150.105469 345.394531 1146.519531 C 349.144531 1144.441406 352.328125 1143.808594 356.207031 1145.886719 Z M 356.207031 1145.902344 " fill-opacity="1" fill-rule="nonzero"/><path fill="#cf5532" d="M 691.960938 878.0625 C 692.59375 884.3125 691.296875 889.8125 685.191406 892.460938 C 680 894.699219 649.5625 902.410156 644.078125 902.800781 C 638.234375 903.207031 632.390625 898.773438 635.878906 893.140625 C 638.445312 889.003906 677.125 877.460938 683.503906 876.796875 C 686.667969 876.457031 689.089844 876.601562 691.945312 878.078125 Z M 691.960938 878.0625 " fill-opacity="1" fill-rule="nonzero"/><path fill="#cf5532" d="M 260.472656 1229.171875 C 266.234375 1238.292969 238.558594 1256.296875 231.953125 1260.660156 C 226.742188 1264.085938 216.824219 1272.496094 212.765625 1263.648438 C 210.996094 1259.785156 213.238281 1256.992188 215.703125 1254.121094 C 219.273438 1249.964844 247.535156 1228.683594 251.980469 1227.859375 C 253.929688 1227.5 259.660156 1227.90625 260.472656 1229.171875 Z M 260.472656 1229.171875 " fill-opacity="1" fill-rule="nonzero"/><path fill="#cf5532" d="M 647.730469 823.765625 C 648.703125 829.835938 645.894531 834.542969 643.816406 839.964844 C 639.644531 850.824219 628.867188 876.84375 623.039062 885.789062 C 622.179688 887.101562 621.597656 889.40625 619.40625 888.921875 C 616.644531 886.828125 614.519531 885.027344 614.292969 881.355469 C 613.933594 875.480469 629.746094 843.261719 633.820312 836.898438 C 635.085938 834.933594 644.90625 820.585938 647.730469 823.765625 Z M 647.730469 823.765625 " fill-opacity="1" fill-rule="nonzero"/></g></g></svg>